<svg width="24" height="26" viewBox="0 0 24 26" fill="none" xmlns="http://www.w3.org/2000/svg">
<path d="M23.6665 4.97305C23.6607 4.93631 23.6579 4.89981 23.6466 4.86632C23.6352 4.81958 23.6181 4.77959 23.5951 4.73634C23.5808 4.70635 23.5637 4.67635 23.5437 4.64961C23.518 4.61287 23.4895 4.58288 23.458 4.55288C23.4323 4.52963 23.4066 4.50963 23.3781 4.48964C23.3438 4.46638 23.3067 4.4529 23.2667 4.43964C23.2467 4.4329 23.2296 4.41639 23.2067 4.4129C23.1923 4.40965 23.1782 4.41616 23.161 4.41616C23.1439 4.41616 23.1325 4.40616 23.1154 4.40616L6.07263 4.40639L5.55536 0.812982C5.54958 0.782986 5.53543 0.756246 5.52686 0.72974C5.51828 0.69649 5.50971 0.663006 5.49536 0.633011C5.47543 0.589761 5.45251 0.549769 5.42679 0.51303C5.40686 0.486289 5.38972 0.463037 5.36679 0.439783C5.3353 0.406532 5.30101 0.383047 5.26394 0.359791C5.23823 0.34305 5.21252 0.329796 5.18401 0.316542C5.14395 0.2998 5.10408 0.29329 5.06123 0.286547C5.0413 0.283291 5.02415 0.273293 5.00402 0.273293L1.38044 0.272827C1.07188 0.272827 0.820312 0.566273 0.820312 0.926245C0.820312 1.28622 1.06887 1.57966 1.38044 1.57966H4.53242L6.607 15.9933C5.69825 16.2533 5.04688 17.1901 5.04688 18.3067V18.4199C5.09253 19.71 5.99569 20.7201 7.10157 20.7201L20.9663 20.7001C21.2749 20.7001 21.5264 20.4066 21.5236 20.0466C21.5236 19.6867 21.2721 19.3965 20.9635 19.3965L7.09876 19.4165C6.59306 19.4165 6.18143 18.9566 6.16153 18.3932V18.3099C6.16153 17.7433 6.53009 17.2798 7.01584 17.2266L11.2336 16.7867C11.2479 16.7867 11.2621 16.7867 11.2764 16.7834L21.7351 15.6966C21.755 15.6934 21.7721 15.6834 21.7923 15.6766C21.8351 15.6666 21.878 15.6534 21.9151 15.6334C21.9408 15.6201 21.9637 15.6034 21.9864 15.5834C22.0207 15.5566 22.0492 15.5301 22.0779 15.4966C22.0978 15.4734 22.115 15.4499 22.1321 15.4199C22.1551 15.3832 22.1722 15.3432 22.1893 15.2999C22.2007 15.2667 22.2123 15.2367 22.2208 15.1999C22.2236 15.1832 22.2322 15.1699 22.2352 15.1499L23.6697 5.17278C23.6725 5.15604 23.6669 5.14278 23.6697 5.12604C23.6721 5.09953 23.6807 5.08279 23.6807 5.05954C23.6807 5.02954 23.6693 5.0028 23.6663 4.97281L23.6665 4.97305ZM6.53294 7.61315L6.25866 5.70969H9.11621L9.39049 7.61315H6.53294ZM6.7215 8.91648H9.57905L9.90475 11.1798H7.0472L6.7215 8.91648ZM7.71593 15.837L7.23296 12.4835H10.0905L10.5306 15.5435L7.71593 15.837ZM13.8025 15.2036L11.648 15.427L11.225 12.4835H13.8025L13.8025 15.2036ZM13.8025 11.1802H11.0365L10.7108 8.91683H13.8027L13.8025 11.1802ZM13.8025 7.61327H10.525L10.2507 5.71332H13.8027L13.8025 7.61327ZM17.1516 14.8534L14.92 15.0869V12.4836H17.4917L17.1516 14.8534ZM17.6802 11.18H14.9197V8.91666H18.0059L17.6802 11.18ZM14.9199 7.61309V5.70963H18.4661L18.1919 7.61309H14.9199ZM21.2065 14.433L18.3003 14.7332L18.6233 12.483H21.4836L21.2065 14.433ZM21.6751 11.1798H18.8118L19.1375 8.91642H21.9979L21.6751 11.1798ZM22.1866 7.61286H19.3262L19.6005 5.70939H22.4609L22.1866 7.61286Z" fill="#71423C"/>
<path d="M9.64728 21.447C8.63571 21.447 7.81268 22.4071 7.81268 23.5872C7.81268 24.7672 8.63571 25.7273 9.64728 25.7273C10.6589 25.7273 11.4819 24.7672 11.4819 23.5872C11.4819 22.4071 10.6589 21.447 9.64728 21.447ZM9.64728 24.4273C9.25002 24.4273 8.93009 24.0506 8.93009 23.5906C8.93009 23.1272 9.253 22.754 9.64728 22.754C10.0416 22.754 10.3645 23.1307 10.3645 23.5906C10.3645 24.0506 10.0446 24.4273 9.64728 24.4273Z" fill="#71423C"/>
<path d="M17.6399 21.447C16.6283 21.447 15.8053 22.4071 15.8053 23.5872C15.8053 24.7672 16.6283 25.7273 17.6399 25.7273C18.6515 25.7273 19.4745 24.7672 19.4745 23.5872C19.4743 22.4071 18.6515 21.447 17.6399 21.447ZM17.6399 24.4273C17.2426 24.4273 16.9227 24.0506 16.9227 23.5906C16.9227 23.1272 17.2456 22.754 17.6399 22.754C18.0372 22.754 18.3571 23.1307 18.3571 23.5906C18.3571 24.0506 18.0342 24.4273 17.6399 24.4273Z" fill="#71423C"/>
</svg>
