<svg width="15" height="17" viewBox="0 0 15 17" fill="none" xmlns="http://www.w3.org/2000/svg">
<path d="M12.45 2.86668L11.7492 13.5448C11.6878 14.48 11.6571 14.9477 11.4583 15.3022C11.2832 15.6144 11.0192 15.8653 10.7009 16.0221C10.3395 16.2 9.87806 16.2 8.95538 16.2H5.4445C4.52181 16.2 4.06047 16.2 3.69898 16.0221C3.38072 15.8653 3.11667 15.6144 2.94161 15.3022C2.74276 14.9477 2.71208 14.48 2.6507 13.5448L1.94995 2.86668M0.199951 2.86668H14.2M10.7 2.86668L10.4632 2.14496C10.2337 1.44557 10.1189 1.09587 9.90606 0.837328C9.71811 0.609017 9.47679 0.432297 9.20414 0.323372C8.89535 0.200012 8.53258 0.200012 7.80685 0.200012H6.59305C5.86733 0.200012 5.50455 0.200012 5.19577 0.323372C4.92313 0.432297 4.68177 0.609017 4.49383 0.837328C4.281 1.09587 4.16626 1.44557 3.93676 2.14496L3.69995 2.86668M8.94995 6.42223V12.6445M5.44995 6.42223V12.6445" stroke="black" stroke-width="0.4" stroke-linecap="round" stroke-linejoin="round"/>
</svg>
