<svg width="23" height="26" viewBox="0 0 23 26" fill="none" xmlns="http://www.w3.org/2000/svg">
<path d="M21.9571 25.7271C22.2574 25.7271 22.501 25.4519 22.501 25.113C22.501 20.0252 19.7538 15.4435 15.7085 13.5844C17.1795 12.2032 18.118 10.1217 18.118 7.79731C18.118 3.64832 15.1289 0.272827 11.4547 0.272827C7.78077 0.272827 4.79141 3.64848 4.79141 7.79731C4.79141 10.1226 5.73049 12.2045 7.20263 13.586C3.26289 15.4132 0.680664 19.9023 0.680664 25.113C0.680664 25.4521 0.924443 25.7271 1.22456 25.7271C1.52487 25.7271 1.76845 25.4519 1.76845 25.113C1.76845 20.1038 4.39404 15.8395 8.31859 14.4344C9.25407 15.0002 10.3214 15.3222 11.4547 15.3222C12.5881 15.3222 13.6555 15.0005 14.5908 14.4343C18.6158 15.872 21.4129 20.2334 21.4129 25.1128C21.4129 25.4523 21.6565 25.7272 21.957 25.7272L21.9571 25.7271ZM5.8792 7.79781C5.8792 4.32596 8.38037 1.50181 11.4546 1.50181C14.5291 1.50181 17.03 4.32601 17.03 7.79781C17.03 11.2694 14.5291 14.0938 11.4546 14.0938C8.38032 14.0938 5.8792 11.2696 5.8792 7.79781Z" fill="#71423C"/>
</svg>
