<svg width="45" height="41" viewBox="0 0 45 41" fill="none" xmlns="http://www.w3.org/2000/svg">
<path d="M40.6038 13.0061L44.4556 9.1544C44.7766 8.83342 44.937 8.19146 44.937 7.70999C44.7766 7.22853 44.4556 6.74706 43.9741 6.58657L27.9252 0.166992C27.2832 -0.153987 26.6412 0.0065031 26.1598 0.487971L22.4685 4.17923L18.7773 0.487971C18.2958 0.0065031 17.6538 -0.153987 17.0119 0.166992L0.962936 6.58657C0.481468 6.74706 0.160489 7.22853 0 7.70999C0 8.19146 0.160489 8.83342 0.481468 9.1544L4.33321 13.0061L0.320979 18.3023C7.17444e-08 18.6233 0 19.2652 0 19.7467C0.160489 20.2282 0.481468 20.5491 0.962936 20.8701L17.0119 27.2897C17.1724 27.2897 17.3329 27.4502 17.6538 27.4502C18.1353 27.4502 18.6168 27.2897 18.9378 26.8082L22.4685 22.154L25.9993 26.8082C26.3203 27.2897 26.8017 27.4502 27.2832 27.4502C27.4437 27.4502 27.7647 27.4502 27.9252 27.2897L43.9741 20.8701C44.4556 20.7096 44.7766 20.2282 44.937 19.7467C45.0975 19.2652 44.937 18.7838 44.6161 18.3023L40.6038 13.0061ZM22.4685 17.4998L10.7528 12.8457L22.4685 8.19146L34.1842 12.8457L22.4685 17.4998Z" fill="#AF848A"/>
<path d="M27.2832 30.4995C25.8388 30.4995 24.3944 29.8575 23.4315 28.5736L22.4685 27.2897L21.5056 28.5736C20.2217 30.339 17.8143 30.981 15.8885 30.1785L4.8147 25.6848V32.1044C4.8147 32.7463 5.13568 33.3883 5.77763 33.5488L21.8266 39.9684C21.9871 39.9684 22.1476 40.1289 22.4685 40.1289C22.7895 40.1289 22.95 40.1289 23.1105 39.9684L39.1594 33.5488C39.8014 33.2278 40.1224 32.7463 40.1224 32.1044V25.6848L29.0486 30.1785C28.5671 30.339 27.9252 30.4995 27.2832 30.4995Z" fill="#AF848A"/>
</svg>
