<svg width="37" height="37" viewBox="0 0 37 37" fill="none" xmlns="http://www.w3.org/2000/svg">
<g clip-path="url(#clip0_505_214)">
<path d="M37.0002 11.5798C37.0002 10.3033 35.9653 9.26735 34.6877 9.26735H30.7402C31.7624 8.2591 32.4156 6.93866 32.4156 5.31182C32.4156 3.30919 31.2652 1.13197 28.0358 1.13197C23.7866 1.13197 20.2369 5.65638 18.5684 8.19204C16.8988 5.65638 13.2416 1.13197 8.99234 1.13197C5.76293 1.13197 4.61246 3.30804 4.61246 5.31066C4.61246 6.9375 5.28424 8.2591 6.32602 9.26619H2.31152C1.03387 9.26619 -0.000976562 10.3022 -0.000976562 11.5787V18.5H2.33234V33.5509C2.33234 34.8286 3.36718 35.8634 4.64484 35.8634H32.3833C33.6609 35.8634 34.6958 34.8286 34.6958 33.5509V18.4988H36.999V11.5775L37.0002 11.5798ZM28.0358 3.44679C29.4649 3.44679 30.1031 4.04804 30.1031 5.31413C30.1031 7.88216 27.2368 9.2685 24.5404 9.2685H20.6254C22.2684 6.82766 25.1602 3.44679 28.0358 3.44679ZM8.99349 3.44679C11.8691 3.44679 14.8707 6.82766 16.5137 9.26735H12.5987C9.9023 9.26735 6.92727 7.84632 6.92727 5.27713C6.92727 4.01104 7.56321 3.44679 8.99349 3.44679ZM34.6877 16.1898H19.6564V11.581H34.6877V16.1898ZM2.31268 11.5798H17.3439V16.1887H2.31268V11.5798ZM4.64599 18.5023H17.3439V33.5544H4.64599V18.5023ZM32.3844 33.5544H19.6564V18.5035H32.3844V33.5544Z" fill="#AF848A"/>
</g>
<defs>
<clipPath id="clip0_505_214">
<rect width="37" height="37" fill="white"/>
</clipPath>
</defs>
</svg>
