<svg width="43" height="42" viewBox="0 0 43 42" fill="none" xmlns="http://www.w3.org/2000/svg">
<path d="M21.5 39.5001C21.5 39.5001 8.72615 30.4226 4.16406 22.8058C2.22815 20.177 1.28476 16.7763 1.54143 13.352C1.7981 9.92776 3.23379 6.76032 5.53268 4.54652C7.83157 2.33273 10.8053 1.25393 13.7998 1.54744C16.7942 1.84095 19.5641 3.48273 21.5 6.11161C23.4359 3.48273 26.2058 1.84095 29.2002 1.54744C32.1947 1.25393 35.1684 2.33273 37.4673 4.54652C39.7662 6.76032 41.2019 9.92776 41.4586 13.352C41.7152 16.7763 40.7719 20.177 38.8359 22.8058C34.2739 30.4226 21.5 39.5001 21.5 39.5001Z" stroke="#AF848A" stroke-width="3"/>
</svg>
