<svg width="35" height="33" viewBox="0 0 35 33" fill="none" xmlns="http://www.w3.org/2000/svg">
<path d="M16.6765 26.6047H23.5349C25.4191 25.8705 25.7502 22.8009 23.5349 22.5257H19.1868C18.7327 22.5257 18.2924 22.3701 17.9354 22.0894C15.2267 19.9599 13.7591 19.1304 11.9259 19.0248C11.8273 19.0191 11.7277 19.0234 11.6296 19.0346C9.5364 19.2733 8.39905 19.4825 6.5772 19.9968M6.5772 19.9968V29.0521M6.5772 19.9968C6.5772 19.0506 5.81019 18.2836 4.86404 18.2836H3C1.89543 18.2836 1 19.1791 1 20.2836V29.9073C1 31.0119 1.89543 31.9073 3 31.9073H4.5772C5.68177 31.9073 6.5772 31.0119 6.5772 29.9073V29.0521M23.5349 26.6047L31.8253 22.9336C32.9689 22.3147 34.7902 24.337 33.6256 25.9391C33.4947 26.1192 33.3047 26.2488 33.1061 26.3495C28.359 28.7577 26.1296 30.1819 20.5819 31.9004C20.3928 31.959 20.1939 31.9897 19.996 31.9862C16.1306 31.9173 11.4032 30.531 6.5772 29.0521M24.59 10.8599C25.4456 9.90351 25.9235 9.2998 26.6618 8.17852C26.7376 8.06338 26.8015 7.93969 26.8499 7.81059C27.375 6.40879 27.4871 5.4507 26.8315 3.74197C26.7951 3.64714 26.7499 3.55492 26.6973 3.46802C25.777 1.94726 24.9713 1.40744 23.3184 1.03915C23.1625 1.00442 23.0009 0.987761 22.8428 1.01026C22.0048 1.12953 21.4177 1.69798 20.8686 2.43254C20.1119 3.44457 18.7491 3.49202 17.9052 2.55155C17.1407 1.69961 16.3492 1.0912 15.2445 1.15205C13.4437 1.48351 12.7449 2.0137 11.9283 3.43626C11.2487 5.03833 11.2765 5.90966 11.7775 7.43363C12.1122 8.12838 12.3232 8.51015 12.8327 9.14679L17.9984 14.9288C18.7846 15.8089 20.158 15.8204 20.9589 14.9535L21.5753 14.2863L24.59 10.8599Z" stroke="#AF848A" stroke-width="2"/>
</svg>
