<svg width="106" height="32" viewBox="0 0 106 32" fill="none" xmlns="http://www.w3.org/2000/svg">
<path d="M18.494 0.789999C20.3687 1.06867 21.8507 1.57533 22.94 2.31C24.0547 3.01933 24.878 3.84266 25.41 4.78C25.942 5.71733 26.284 6.642 26.436 7.554C26.588 8.44067 26.664 9.20067 26.664 9.834C26.664 10.6447 26.5247 11.582 26.246 12.646C25.9673 13.6847 25.4987 14.7107 24.84 15.724C24.2067 16.712 23.358 17.5733 22.294 18.308C21.23 19.0173 19.9 19.448 18.304 19.6C18.0253 19.6253 17.6707 19.6507 17.24 19.676C16.8093 19.7013 16.4167 19.7267 16.062 19.752C15.7327 19.752 15.53 19.752 15.454 19.752C14.4913 19.8027 13.6047 20.0813 12.794 20.588C12.0087 21.0947 11.3753 21.7533 10.894 22.564C10.438 23.3493 10.1973 24.236 10.172 25.224V26.63C10.172 27.2887 10.2607 27.8967 10.438 28.454C10.6153 28.986 10.7547 29.3533 10.856 29.556C10.248 30.1133 9.716 30.506 9.26 30.734C8.804 30.962 8.234 31.1267 7.55 31.228C6.99267 31.304 6.372 31.2533 5.688 31.076C5.02933 30.8987 4.434 30.5693 3.902 30.088C3.37 29.5813 3.028 28.8847 2.876 27.998C2.85067 27.846 2.838 27.3647 2.838 26.554C2.838 25.718 2.838 24.692 2.838 23.476C2.86333 22.2347 2.876 20.8793 2.876 19.41C2.90133 17.9407 2.914 16.4713 2.914 15.002C2.914 13.5327 2.914 12.1647 2.914 10.898C2.88867 9.53 2.82533 8.37733 2.724 7.44C2.648 6.50267 2.458 5.90733 2.154 5.654C1.622 5.198 1.204 4.48866 0.9 3.526C0.621333 2.56333 0.494667 1.65133 0.52 0.789999C0.621333 0.815332 0.9 0.853332 1.356 0.903998C1.812 0.929332 2.29333 0.967333 2.8 1.018C3.05333 1.018 3.47133 1.018 4.054 1.018C4.63667 0.992666 5.27 0.954665 5.954 0.903998C6.66333 0.853332 7.34733 0.815332 8.006 0.789999C8.66467 0.739332 9.19667 0.701332 9.602 0.675999C10.1593 0.625333 10.894 0.574666 11.806 0.523998C12.7433 0.473332 13.7947 0.460666 14.96 0.485999C16.1253 0.511332 17.3033 0.612665 18.494 0.789999ZM13.972 12.646C14.3267 12.6713 14.77 12.646 15.302 12.57C15.8593 12.4687 16.4167 12.3167 16.974 12.114C17.5567 11.9113 18.038 11.6327 18.418 11.278C18.798 10.898 18.988 10.442 18.988 9.91C18.988 9.17533 18.7093 8.60533 18.152 8.2C17.62 7.79466 16.9613 7.516 16.176 7.364C15.416 7.212 14.6813 7.14867 13.972 7.174C12.9333 7.19933 12.0467 7.49067 11.312 8.048C10.5773 8.58 10.21 9.21333 10.21 9.948C10.2353 10.4293 10.4253 10.8727 10.78 11.278C11.16 11.658 11.6287 11.9747 12.186 12.228C12.7687 12.4813 13.364 12.6207 13.972 12.646ZM29.004 27.884C29.004 27.6813 29.004 27.1367 29.004 26.25C29.004 25.338 29.004 24.2107 29.004 22.868C29.004 21.5253 28.9913 20.056 28.966 18.46C28.966 16.8387 28.966 15.2047 28.966 13.558C28.966 11.9113 28.9533 10.3533 28.928 8.884C28.928 7.38933 28.9153 6.09733 28.89 5.008C28.8646 3.96933 28.776 3.108 28.624 2.424C28.472 1.71467 28.3833 1.284 28.358 1.132C28.662 1.08133 29.118 1.06866 29.726 1.094C30.334 1.094 31.0053 1.17 31.74 1.322C32.5 1.44867 33.222 1.664 33.906 1.968C34.59 2.24667 35.16 2.652 35.616 3.184C36.072 3.69067 36.3126 4.33667 36.338 5.122C36.3633 5.60333 36.376 6.452 36.376 7.668C36.4013 8.85867 36.414 10.2647 36.414 11.886C36.4393 13.482 36.4646 15.1287 36.49 16.826C36.5153 18.498 36.528 20.0813 36.528 21.576C36.5533 23.0707 36.566 24.3247 36.566 25.338C36.5913 26.326 36.604 26.9087 36.604 27.086C36.604 27.618 36.7433 28.1373 37.022 28.644C37.326 29.1253 37.6426 29.4293 37.972 29.556C37.82 29.7587 37.478 30.0247 36.946 30.354C36.414 30.6833 35.7933 30.9873 35.084 31.266C34.4 31.5447 33.7033 31.722 32.994 31.798C32.4113 31.8487 31.8033 31.7093 31.17 31.38C30.562 31.076 30.0426 30.62 29.612 30.012C29.2066 29.404 29.004 28.6947 29.004 27.884ZM59.2143 26.174C59.2143 26.402 59.2523 26.744 59.3283 27.2C59.4043 27.656 59.5056 28.1247 59.6323 28.606C59.7843 29.0873 59.9363 29.518 60.0883 29.898C60.2403 30.2527 60.3923 30.468 60.5443 30.544C60.1896 30.9747 59.6196 31.3167 58.8343 31.57C58.0489 31.8487 57.2636 31.8993 56.4783 31.722C55.8703 31.5447 55.3256 31.38 54.8443 31.228C54.3629 31.076 53.7043 31.0127 52.8683 31.038C52.2603 31.0633 51.6523 31.1267 51.0443 31.228C50.4616 31.3293 49.8663 31.4433 49.2583 31.57C48.9543 31.6207 48.4223 31.6333 47.6623 31.608C46.9276 31.608 46.1169 31.5193 45.2303 31.342C44.3689 31.1647 43.5709 30.8607 42.8363 30.43C41.8736 29.8473 41.1516 28.9987 40.6703 27.884C40.1889 26.7693 39.9103 25.6293 39.8343 24.464C39.8343 24.1853 39.8216 23.6407 39.7963 22.83C39.7963 22.0193 39.7836 21.0567 39.7583 19.942C39.7583 18.8273 39.7456 17.6747 39.7203 16.484C39.7203 15.2933 39.7076 14.1913 39.6823 13.178C39.6823 12.1393 39.6823 11.3033 39.6823 10.67C39.6823 10.0113 39.6823 9.682 39.6823 9.682C39.9103 9.65667 40.2903 9.63133 40.8223 9.606C41.3796 9.55533 41.9876 9.55533 42.6463 9.606C43.3049 9.65667 43.9383 9.78333 44.5463 9.986C45.1796 10.1633 45.7116 10.4547 46.1423 10.86C46.5983 11.2653 46.8643 11.81 46.9403 12.494C46.9909 13.0513 47.0289 13.558 47.0543 14.014C47.0796 14.47 47.0923 14.9767 47.0923 15.534C47.0923 16.066 47.0669 16.7373 47.0163 17.548C46.9909 18.3333 46.9529 19.334 46.9023 20.55C46.8516 21.538 46.8263 22.3867 46.8263 23.096C46.8516 23.8053 47.0289 24.3373 47.3583 24.692C47.6876 25.0467 48.2703 25.1987 49.1063 25.148C49.6636 25.1227 50.1196 24.9073 50.4743 24.502C50.8543 24.0713 51.1583 23.552 51.3863 22.944C51.6143 22.336 51.7663 21.7153 51.8423 21.082C51.9436 20.4487 51.9943 19.8913 51.9943 19.41C51.9943 19.3087 51.9816 18.916 51.9563 18.232C51.9563 17.548 51.9436 16.7373 51.9183 15.8C51.9183 14.8373 51.9056 13.8873 51.8803 12.95C51.8803 12.0127 51.8803 11.24 51.8803 10.632C51.8803 9.99867 51.8803 9.682 51.8803 9.682C52.1083 9.65667 52.4883 9.65667 53.0203 9.682C53.5523 9.682 54.1476 9.73266 54.8063 9.834C55.4649 9.93533 56.1109 10.1127 56.7443 10.366C57.3776 10.6193 57.9096 10.974 58.3403 11.43C58.7963 11.8607 59.0623 12.418 59.1383 13.102C59.2903 14.5713 59.3156 16.37 59.2143 18.498C59.1383 20.6007 59.1383 23.1593 59.2143 26.174ZM72.1687 8.922C74.0434 8.922 75.6394 9.188 76.9567 9.72C78.2994 10.252 79.3254 10.9107 80.0347 11.696C80.744 12.4813 81.086 13.254 81.0607 14.014C81.0607 14.4193 80.8834 14.8753 80.5287 15.382C80.174 15.8887 79.7054 16.3193 79.1227 16.674C78.5654 17.0033 77.9447 17.13 77.2607 17.054C77.438 16.598 77.324 16.1673 76.9187 15.762C76.5134 15.3567 75.9307 15.0273 75.1707 14.774C74.4107 14.4953 73.5874 14.3433 72.7007 14.318C71.6874 14.2673 71.0034 14.3813 70.6487 14.66C70.294 14.9133 70.0914 15.192 70.0407 15.496C69.9647 15.8253 70.1167 16.1167 70.4967 16.37C70.8767 16.598 71.3707 16.8133 71.9787 17.016C72.612 17.1933 73.2707 17.358 73.9547 17.51C74.664 17.6367 75.31 17.7507 75.8927 17.852C76.5007 17.9533 76.9694 18.0547 77.2987 18.156C78.8187 18.612 79.9334 19.2073 80.6427 19.942C81.352 20.6513 81.808 21.4113 82.0107 22.222C82.2387 23.0327 82.3274 23.8307 82.2767 24.616C82.226 25.8827 81.8967 26.9467 81.2887 27.808C80.706 28.644 79.9714 29.3153 79.0847 29.822C78.2234 30.3287 77.3114 30.7087 76.3487 30.962C75.4114 31.19 74.5247 31.342 73.6887 31.418C72.878 31.494 72.2574 31.532 71.8267 31.532C70.5094 31.5067 69.268 31.3673 68.1027 31.114C66.9627 30.886 65.9747 30.582 65.1387 30.202C64.328 29.822 63.7454 29.4167 63.3907 28.986C63.1374 28.682 62.8967 28.2513 62.6687 27.694C62.4407 27.1367 62.3014 26.5413 62.2507 25.908C62.2254 25.2493 62.3647 24.6287 62.6687 24.046C62.9727 23.438 63.53 22.944 64.3407 22.564C64.4927 23.0707 64.898 23.5267 65.5567 23.932C66.2407 24.3373 67.0514 24.6667 67.9887 24.92C68.9514 25.1733 69.9014 25.3507 70.8387 25.452C71.7507 25.528 72.612 25.5153 73.4227 25.414C74.2334 25.3127 74.6767 25.0213 74.7527 24.54C74.8034 24.2867 74.6767 24.0333 74.3727 23.78C74.0687 23.5267 73.5114 23.3113 72.7007 23.134C71.8394 22.9313 71.0794 22.7793 70.4207 22.678C69.7874 22.5513 69.154 22.412 68.5207 22.26C67.33 21.956 66.2914 21.4747 65.4047 20.816C64.518 20.1573 63.8467 19.372 63.3907 18.46C62.96 17.5227 62.808 16.5347 62.9347 15.496C63.1374 14.0013 63.682 12.7727 64.5687 11.81C65.4807 10.8473 66.608 10.1253 67.9507 9.644C69.2934 9.16267 70.6994 8.922 72.1687 8.922ZM104.561 26.174C104.586 26.63 104.662 27.1113 104.789 27.618C104.941 28.0993 105.295 28.454 105.853 28.682C105.523 29.1127 104.941 29.594 104.105 30.126C103.269 30.6327 102.369 30.962 101.407 31.114C100.52 31.2407 99.7727 31.1393 99.1647 30.81C98.5821 30.4553 98.1387 29.9487 97.8347 29.29C97.5561 28.6313 97.4041 27.922 97.3787 27.162C97.3787 26.9593 97.3914 26.5413 97.4167 25.908C97.4421 25.2493 97.4547 24.502 97.4547 23.666C97.4547 22.83 97.4421 22.032 97.4167 21.272C97.4167 20.512 97.3787 19.9167 97.3027 19.486C97.1507 18.65 96.8467 18.1813 96.3907 18.08C95.9601 17.9533 95.4661 18.0547 94.9087 18.384C94.0221 18.8907 93.2874 19.79 92.7047 21.082C92.1474 22.3487 91.8561 23.97 91.8307 25.946C91.8054 26.7313 91.9067 27.3013 92.1347 27.656C92.3627 27.9853 92.4767 28.15 92.4767 28.15C92.4767 28.15 92.3501 28.3653 92.0967 28.796C91.8434 29.2267 91.3874 29.6953 90.7287 30.202C90.0701 30.6833 89.1074 31.0253 87.8407 31.228C87.1314 31.3293 86.5487 31.2027 86.0927 30.848C85.6367 30.468 85.3074 29.936 85.1047 29.252C84.9021 28.568 84.7881 27.846 84.7627 27.086L84.6487 5.008C84.6234 3.96933 84.5094 3.05733 84.3067 2.272C84.1041 1.46133 84.0027 1.056 84.0027 1.056C84.6361 0.979999 85.3707 0.954666 86.2067 0.979999C87.0681 1.00533 87.9041 1.132 88.7147 1.36C89.5507 1.56267 90.2601 1.91733 90.8427 2.424C91.4254 2.93066 91.7674 3.61467 91.8687 4.476C91.8941 4.65333 91.9194 4.99533 91.9447 5.502C91.9954 5.98333 92.0207 6.47733 92.0207 6.984C91.9954 7.69333 92.0967 8.28867 92.3247 8.77C92.5527 9.25133 92.8567 9.61866 93.2367 9.872C93.6674 10.1253 94.2121 10.214 94.8707 10.138C95.5294 10.0367 96.1121 9.89733 96.6187 9.72C97.1254 9.51733 97.5434 9.36533 97.8727 9.264C98.2274 9.16267 98.5947 9.08667 98.9747 9.036C99.4054 8.98533 99.9121 9.01067 100.495 9.112C101.077 9.188 101.647 9.378 102.205 9.682C102.787 9.986 103.281 10.4167 103.687 10.974C104.117 11.5313 104.383 12.2407 104.485 13.102C104.662 14.5713 104.7 16.37 104.599 18.498C104.523 20.6007 104.51 23.1593 104.561 26.174Z" fill="#71423C"/>
</svg>
