<svg width="26" height="33" viewBox="0 0 26 33" fill="none" xmlns="http://www.w3.org/2000/svg">
<path d="M18.7833 23.3268C18.7828 23.3268 18.7828 23.3268 18.7822 23.3273C18.7817 23.3279 18.7811 23.3284 18.78 23.329L18.7833 23.3268Z" fill="#AF848A"/>
<path d="M19.3758 22.7974L19.3752 22.7979C19.3745 22.7984 19.3745 22.7991 19.374 22.7997L19.3758 22.7974Z" fill="#AF848A"/>
<path d="M5.66626 22.7974L5.67039 22.8019C5.66988 22.8014 5.66988 22.8014 5.66988 22.8008C5.66937 22.8003 5.66829 22.7994 5.66785 22.7989L5.66626 22.7974Z" fill="#AF848A"/>
<path d="M10.1141 21.5012L10.1038 21.4988C10.1042 21.4988 10.1047 21.4992 10.1047 21.4992C10.1052 21.4992 10.1052 21.4992 10.1052 21.4992L10.1141 21.5012Z" fill="#AF848A"/>
<path d="M24.6685 11.3135C24.3711 10.848 24.0132 10.5096 23.7426 10.2095C23.6074 10.0624 23.4941 9.9287 23.4197 9.82226C23.344 9.71538 23.3126 9.63893 23.3068 9.61472C23.3001 9.5897 23.292 9.54053 23.2925 9.46767C23.2893 9.28295 23.3521 8.96148 23.4389 8.5935C23.5213 8.22192 23.6279 7.80421 23.6316 7.31821C23.6316 6.99222 23.5756 6.61128 23.3655 6.24819C23.2468 6.04298 23.0949 5.87348 22.9369 5.73843C22.6574 5.50191 22.3635 5.36151 22.0867 5.25061C21.671 5.08739 21.2738 4.98768 20.9629 4.8813C20.8084 4.82943 20.6768 4.77706 20.5831 4.72883C20.4882 4.68137 20.434 4.63893 20.4147 4.61881L20.4143 4.61793C20.3834 4.59152 20.3028 4.47439 20.2262 4.2754C20.1053 3.97852 19.9977 3.53628 19.8275 3.06852C19.7397 2.83375 19.634 2.58824 19.4746 2.34323C19.3156 2.10042 19.0925 1.85176 18.7835 1.67339C18.4189 1.46365 18.0378 1.40732 17.7113 1.40776C17.2243 1.4109 16.8061 1.51779 16.4339 1.60002C16.0653 1.68679 15.7428 1.74941 15.5582 1.74626C15.4848 1.7467 15.4359 1.73865 15.4109 1.73155C15.3791 1.72658 15.2532 1.66711 15.0884 1.53344C14.8372 1.33665 14.5223 1.00532 14.1366 0.684296C13.9413 0.524224 13.7241 0.364153 13.4598 0.232248C13.1978 0.101538 12.878 0 12.5205 0C12.0408 0.000880204 11.6417 0.17799 11.3323 0.372515C10.8664 0.669835 10.5274 1.02714 10.2269 1.29673C10.0795 1.43222 9.9456 1.54532 9.83898 1.61914C9.73192 1.69471 9.65578 1.72602 9.6316 1.73142C9.60565 1.73859 9.55685 1.74664 9.48386 1.74614C9.29927 1.74928 8.97728 1.68666 8.60868 1.5999C8.23598 1.51722 7.81769 1.41078 7.33038 1.40713C7.00385 1.40713 6.62265 1.46353 6.25897 1.67233L6.24958 1.67773L6.2572 1.67371C6.05209 1.79222 5.88275 1.94374 5.74798 2.10161C5.51144 2.38064 5.37081 2.67356 5.25972 2.94988C5.09674 3.36527 4.99686 3.76143 4.89024 4.07176C4.83784 4.22649 4.78538 4.35751 4.73746 4.45138C4.6896 4.54569 4.64747 4.59982 4.62775 4.61862C4.60042 4.64949 4.48266 4.73047 4.28334 4.80736C3.98546 4.92807 3.54255 5.03496 3.074 5.20534C2.83885 5.29254 2.59299 5.3981 2.34751 5.55767C2.10429 5.71642 1.85566 5.93956 1.677 6.24807C1.46691 6.61115 1.41048 6.99209 1.41048 7.31852C1.41413 7.80458 1.52119 8.22224 1.60357 8.59425C1.69091 8.96224 1.75364 9.28383 1.75055 9.46798C1.75055 9.54091 1.74293 9.59008 1.73569 9.6151L1.73613 9.61422C1.73078 9.64641 1.67076 9.77253 1.53637 9.93663C1.33932 10.1879 1.00737 10.5018 0.685812 10.8869C0.525475 11.0814 0.364633 11.2982 0.232509 11.562C0.101707 11.8237 0 12.1429 0 12.4997C0.000881669 12.9786 0.178286 13.3775 0.373072 13.6865C0.67095 14.152 1.02929 14.4909 1.29977 14.7905C1.43548 14.938 1.54878 15.0713 1.62315 15.1782C1.69885 15.2851 1.73021 15.3611 1.73601 15.3857L1.74004 15.4013L1.7355 15.3848C1.74268 15.4103 1.75036 15.459 1.75036 15.5319C1.75345 15.7161 1.69079 16.0376 1.60338 16.4056C1.521 16.7776 1.41395 17.1953 1.41029 17.6814C1.41029 18.0082 1.46678 18.3888 1.67681 18.7519C1.79501 18.9567 1.94691 19.1266 2.10542 19.2612C2.38447 19.4982 2.67826 19.6386 2.95554 19.7495C3.37119 19.9127 3.76844 20.0119 4.07929 20.1184C4.23428 20.1707 4.36552 20.223 4.45954 20.2709C4.55401 20.3187 4.60823 20.3608 4.62706 20.3808C4.65571 20.4063 4.7265 20.5061 4.79684 20.6782C4.86851 20.8481 4.94062 21.0797 5.01947 21.3377L5.01896 21.336C5.08616 21.5564 5.15915 21.7956 5.25682 22.0433C5.35532 22.2902 5.47711 22.5486 5.66932 22.8004C5.74854 22.9055 5.8449 23.007 5.95284 23.1027L3.10914 29.2336L7.04617 29.116L9.50256 32.1903L12.2917 26.1756L15.0799 32.1899L17.5375 29.1156L21.4745 29.2333L18.7432 23.3456C18.7562 23.3384 18.7692 23.3344 18.7817 23.3272C19.0321 23.1828 19.2265 22.9928 19.3747 22.7979C19.5826 22.5233 19.7089 22.2424 19.811 21.9759C19.9615 21.5762 20.0582 21.1961 20.1616 20.9005C20.2118 20.753 20.2624 20.6287 20.309 20.5401C20.3547 20.4507 20.3955 20.3997 20.4143 20.3814C20.4421 20.3501 20.5599 20.2696 20.7592 20.1927C21.0571 20.072 21.5 19.9647 21.9681 19.7947C22.2033 19.7075 22.4491 19.602 22.6946 19.4423C22.9378 19.284 23.1864 19.0609 23.3651 18.7524C23.5756 18.3889 23.6316 18.0078 23.6316 17.6819C23.6285 17.1959 23.5214 16.7782 23.439 16.4066C23.3521 16.0386 23.2894 15.7171 23.2926 15.5324C23.2921 15.4591 23.3002 15.4103 23.3069 15.3853C23.3127 15.3531 23.3723 15.227 23.5062 15.0629C23.7032 14.812 24.0347 14.4977 24.3563 14.1126C24.5166 13.9181 24.6774 13.7008 24.8091 13.4374C24.9399 13.1758 25.0416 12.8566 25.0416 12.4997C25.0407 12.0209 24.8633 11.6225 24.6685 11.3135ZM23.1151 12.7117C22.9906 12.9179 22.7035 13.2157 22.3891 13.5542C22.2323 13.7259 22.0684 13.9114 21.9156 14.1287C21.7647 14.3461 21.6195 14.5987 21.5349 14.9122C21.4767 15.1286 21.4579 15.3374 21.4579 15.5323C21.461 16.0211 21.5676 16.4423 21.6504 16.8148C21.7374 17.1832 21.8001 17.5038 21.7969 17.6818C21.7969 17.7413 21.7915 17.7833 21.7861 17.8066L21.7772 17.8352L21.7444 17.8692C21.7001 17.909 21.5841 17.9791 21.4094 18.0471C21.1483 18.1523 20.7751 18.2497 20.3747 18.3834C20.1741 18.4518 19.9644 18.5301 19.7513 18.6383C19.5385 18.7465 19.3191 18.885 19.1175 19.0858C18.8577 19.3466 18.7013 19.6336 18.5813 19.9041C18.404 20.3115 18.3027 20.7041 18.1975 21.0296C18.0976 21.3552 17.9856 21.6038 17.9144 21.6892L17.9131 21.691L17.8777 21.7308L17.867 21.7393L17.8607 21.7433L17.8638 21.741L17.8355 21.75C17.8123 21.7554 17.7706 21.7607 17.7106 21.7607C17.5327 21.7639 17.2116 21.7012 16.8421 21.6145C16.469 21.5317 16.0475 21.4254 15.558 21.4222C15.3623 21.4222 15.1536 21.441 14.9367 21.4987L14.9175 21.504L14.8633 21.521L14.8637 21.5219C14.3594 21.6829 14.0177 21.9677 13.7167 22.2262C13.4166 22.4914 13.1577 22.7516 12.9396 22.926L12.9409 22.9251C12.8155 23.0266 12.7071 23.0973 12.6337 23.1317C12.5585 23.1675 12.5285 23.1684 12.5204 23.1684C12.5128 23.1684 12.4827 23.1675 12.4075 23.1317C12.3345 23.0973 12.2266 23.027 12.1025 22.9264C11.8804 22.7484 11.6156 22.4806 11.3075 22.2101C10.9957 21.944 10.6388 21.6489 10.1044 21.4991C9.88766 21.441 9.67896 21.4222 9.48317 21.4222C8.99409 21.4253 8.57215 21.5317 8.19908 21.6144C7.83004 21.7012 7.50842 21.7638 7.33019 21.7607C7.27062 21.7607 7.22849 21.7553 7.20519 21.75L7.17653 21.741L7.17521 21.7401L7.12955 21.6923L7.12861 21.6909L7.12728 21.6896C7.0861 21.6364 7.02381 21.5255 6.96292 21.3699C6.90107 21.2147 6.83973 21.0188 6.77392 20.8029L6.77348 20.8011C6.69508 20.5471 6.61182 20.2649 6.48996 19.9725C6.36678 19.6814 6.206 19.3693 5.92469 19.0858C5.61566 18.7809 5.27433 18.6168 4.95945 18.4898C4.48606 18.3051 4.0337 18.1987 3.70937 18.0766C3.54859 18.0176 3.42409 17.9572 3.35286 17.9103C3.27937 17.8615 3.26595 17.837 3.26507 17.8352L3.26463 17.8343L3.25569 17.8061C3.25071 17.7828 3.24492 17.7413 3.24492 17.6813C3.24177 17.5037 3.30449 17.1832 3.39191 16.8147C3.47472 16.4423 3.58178 16.021 3.58493 15.5318C3.58493 15.3369 3.56566 15.1284 3.50835 14.9125L3.50791 14.9116C3.39228 14.4931 3.17867 14.185 2.97085 13.9211C2.6542 13.529 2.31822 13.2138 2.10007 12.9464C1.99081 12.8149 1.91328 12.7 1.87525 12.6217C1.83582 12.5417 1.83444 12.5095 1.83444 12.4996C1.83356 12.4902 1.83897 12.4263 1.92588 12.2881C2.05082 12.0824 2.33837 11.7841 2.65282 11.4461C2.80956 11.2744 2.97393 11.0889 3.12627 10.8716C3.27767 10.6542 3.42276 10.4016 3.50791 10.0881L3.50835 10.0873C3.56566 9.87086 3.58493 9.66288 3.58493 9.46792C3.58178 8.97878 3.47472 8.55753 3.39191 8.18508C3.30449 7.81665 3.24183 7.49601 3.24492 7.31846C3.24492 7.25854 3.25071 7.21698 3.25569 7.19372L3.26463 7.16555L3.26507 7.16467L3.29782 7.13022C3.34171 7.09086 3.45816 7.02063 3.63241 6.95267C3.89351 6.84717 4.26709 6.74966 4.66749 6.61593C4.86813 6.54797 5.07822 6.46925 5.29146 6.36105C5.50369 6.25285 5.72367 6.11371 5.92526 5.9134C6.23025 5.60489 6.39424 5.26456 6.52095 4.95071C6.70591 4.47854 6.81297 4.02687 6.93527 3.7027C6.9944 3.54175 7.05486 3.41702 7.10235 3.34584C7.14933 3.27518 7.17313 3.26091 7.17666 3.25864L7.20487 3.24971C7.22861 3.24431 7.27074 3.23852 7.33032 3.23852C7.50898 3.23538 7.83016 3.298 8.1992 3.38527C8.57234 3.46794 8.99422 3.57438 9.4838 3.57753C9.67909 3.57753 9.88779 3.55879 10.1046 3.50057C10.5233 3.38608 10.8324 3.17326 11.0971 2.96535C11.4895 2.65011 11.8062 2.31425 12.0739 2.09652C12.2057 1.98694 12.3208 1.91004 12.3992 1.87157C12.4793 1.83221 12.5116 1.83133 12.5206 1.83133C12.53 1.83038 12.5945 1.83579 12.7333 1.92299C12.9394 2.04729 13.2386 2.33436 13.5772 2.64828C13.7492 2.80477 13.9351 2.96843 14.1528 3.12045C14.3704 3.27159 14.6235 3.41601 14.9375 3.50101C15.1539 3.55873 15.3626 3.57746 15.5583 3.57746C16.0479 3.57432 16.4698 3.46788 16.8429 3.3852C17.2124 3.29794 17.5336 3.23538 17.7114 3.23896C17.7714 3.23852 17.813 3.24437 17.8363 3.24927L17.8646 3.2582L17.8991 3.29083C17.939 3.33509 18.0093 3.45141 18.0774 3.62575C18.1826 3.88648 18.2803 4.25899 18.4142 4.65873C18.4827 4.85954 18.5615 5.06878 18.6695 5.28167C18.7783 5.49354 18.9172 5.71315 19.1182 5.91441L19.133 5.92868L19.1178 5.91346C19.4273 6.21845 19.7681 6.38255 20.0826 6.50955C20.556 6.6942 21.0084 6.80065 21.3322 6.92318C21.4934 6.98178 21.6179 7.04214 21.6892 7.08954C21.7627 7.13827 21.7765 7.16329 21.7779 7.16511L21.7864 7.19328C21.7917 7.21648 21.7972 7.2581 21.7972 7.31802C21.8003 7.49601 21.7376 7.81659 21.6507 8.18508C21.5679 8.5576 21.4613 8.97878 21.4581 9.46754C21.4581 9.66244 21.4769 9.8713 21.5347 10.0878C21.6503 10.5062 21.8639 10.8144 22.0718 11.0786C22.388 11.4703 22.7239 11.7856 22.942 12.053C23.0513 12.1845 23.1283 12.2993 23.1664 12.3776C23.2058 12.4577 23.2072 12.4903 23.2072 12.4997C23.2079 12.5097 23.2025 12.5736 23.1151 12.7117Z" fill="#AF848A"/>
<path d="M12.5205 4.88379C8.30712 4.88423 4.89229 8.29339 4.89185 12.4998C4.89141 14.6984 5.82749 16.6842 7.32217 18.0726C8.58031 19.2456 10.2429 19.9973 12.0757 20.1023H12.0761C12.0775 20.1023 12.0788 20.1027 12.0802 20.1027L12.0779 20.1023C12.2266 20.1117 12.3744 20.1157 12.5204 20.1157C16.7343 20.1153 20.1486 16.7066 20.1491 12.4997C20.1487 8.29339 16.7344 4.88423 12.5205 4.88379ZM16.9422 16.9137C15.8081 18.0445 14.2494 18.7417 12.5205 18.742C12.3977 18.742 12.2786 18.739 12.1631 18.7313L12.1581 18.7309C10.6532 18.6455 9.29515 18.0311 8.26051 17.068C7.03241 15.925 6.26826 14.3059 6.26782 12.4998C6.26826 10.7738 6.96654 9.21773 8.09923 8.08597C9.23287 6.9551 10.7916 6.25798 12.5205 6.25754C14.2494 6.25798 15.808 6.9551 16.9417 8.08597C18.0744 9.21773 18.7727 10.7738 18.7732 12.4998C18.7728 14.2258 18.0745 15.7824 16.9422 16.9137Z" fill="#AF848A"/>
</svg>
