<svg width="22" height="26" viewBox="0 0 22 26" fill="none" xmlns="http://www.w3.org/2000/svg">
<path d="M8.25581 0.272827C3.70679 0.272827 0 4.59697 0 9.90359C0 15.2102 3.70679 19.5344 8.25581 19.5344C10.2128 19.5344 12.0079 18.7296 13.425 17.3954L20.3081 25.425C20.6534 25.8278 21.2157 25.8281 21.5613 25.425C21.9066 25.0221 21.9068 24.3662 21.5613 23.9631L14.6876 15.9446C15.8299 14.292 16.5119 12.185 16.5119 9.90378C16.5119 4.59715 12.8051 0.273011 8.25607 0.273011L8.25581 0.272827ZM8.25581 2.33669C11.8487 2.33669 14.7425 5.71243 14.7425 9.90372C14.7425 14.095 11.8487 17.4708 8.25581 17.4708C4.66295 17.4708 1.7691 14.095 1.7691 9.90372C1.7691 5.71225 4.6629 2.33669 8.25581 2.33669Z" fill="#71423C"/>
</svg>
