<svg width="36" height="40" viewBox="0 0 36 40" fill="none" xmlns="http://www.w3.org/2000/svg">
<path d="M11.8127 20.0463L15.9377 24.1991L24.1877 15.8935M34.5002 20.0463C34.5002 29.3093 23.239 36.0214 19.3231 38.0756C18.8997 38.2978 18.6879 38.4088 18.3942 38.4664C18.1652 38.5112 17.8352 38.5112 17.6063 38.4664C17.3126 38.4088 17.1008 38.2978 16.6774 38.0756C12.7614 36.0214 1.50024 29.3093 1.50024 20.0463V12.1926C1.50024 10.5325 1.50024 9.70243 1.76994 8.98892C2.00818 8.35859 2.39533 7.79618 2.89792 7.35027C3.46684 6.84553 4.23883 6.55408 5.78282 5.97118L16.8415 1.79625C17.2703 1.63437 17.4846 1.55344 17.7053 1.52133C17.9008 1.49289 18.0997 1.49289 18.2952 1.52133C18.5159 1.55344 18.7302 1.63437 19.159 1.79625L30.2177 5.97118C31.7617 6.55408 32.5337 6.84553 33.1025 7.35027C33.6051 7.79618 33.9922 8.35859 34.2305 8.98892C34.5002 9.70243 34.5002 10.5325 34.5002 12.1926V20.0463Z" stroke="#AF848A" stroke-width="3" stroke-linecap="round" stroke-linejoin="round"/>
</svg>
