<svg width="38" height="41" viewBox="0 0 38 41" fill="none" xmlns="http://www.w3.org/2000/svg">
<path d="M3.29712 18.5514V24.1808C3.29712 31.2573 3.29712 34.7957 5.46178 36.994C7.62647 39.1924 11.1104 39.1924 18.0784 39.1924H19.9261C26.894 39.1924 30.3781 39.1924 32.5427 36.994C34.7074 34.7957 34.7074 31.2573 34.7074 24.1808V18.5514" stroke="#AF848A" stroke-width="3"/>
<path d="M14.3986 1.50012H23.606L24.8061 13.7829C25.1495 17.297 22.453 20.3463 19.0023 20.3463C15.5516 20.3463 12.8551 17.297 13.1985 13.7829L14.3986 1.50012Z" stroke="#AF848A" stroke-width="3"/>
<path d="M2.80006 7.81609C3.15111 6.13803 3.32664 5.299 3.68353 4.61886C4.43554 3.1857 5.78868 2.12521 7.40614 1.7013C8.17376 1.50012 9.06879 1.50012 10.8588 1.50012H14.9637L13.5354 15.1547C13.2272 18.1019 10.633 20.3463 7.53481 20.3463C3.72925 20.3463 0.875026 17.0179 1.62135 13.4503L2.80006 7.81609Z" stroke="#AF848A" stroke-width="3"/>
<path d="M35.2908 7.81609C34.9631 6.13803 34.7992 5.299 34.4661 4.61886C33.7642 3.1857 32.5013 2.12521 30.9917 1.7013C30.2752 1.50012 29.4399 1.50012 27.7692 1.50012H23.938L25.271 15.1547C25.5588 18.1019 27.9799 20.3463 30.8717 20.3463C34.4235 20.3463 37.0875 17.0179 36.3909 13.4503L35.2908 7.81609Z" stroke="#AF848A" stroke-width="3"/>
<path d="M14.9636 38.295V32.9104C14.9636 31.2329 14.9636 30.3942 15.3243 29.7694C15.5606 29.3601 15.9005 29.0202 16.3098 28.784C16.9346 28.4232 17.7733 28.4232 19.4508 28.4232C21.1283 28.4232 21.967 28.4232 22.5918 28.784C23.0011 29.0202 23.341 29.3601 23.5772 29.7694C23.938 30.3942 23.938 31.2329 23.938 32.9104V38.295" stroke="#AF848A" stroke-width="3" stroke-linecap="round"/>
</svg>
