<svg width="33" height="33" viewBox="0 0 33 33" fill="none" xmlns="http://www.w3.org/2000/svg">
<path d="M16.3666 31.5333C24.7429 31.5333 31.5333 24.743 31.5333 16.3667C31.5333 7.99036 24.7429 1.20001 16.3666 1.20001C7.9903 1.20001 1.19995 7.99036 1.19995 16.3667C1.19995 24.743 7.9903 31.5333 16.3666 31.5333Z" stroke="#B99399" stroke-width="2.4" stroke-linecap="round" stroke-linejoin="round"/>
<path d="M10.6791 13.9022C11.4121 13.9022 12.0062 13.308 12.0062 12.5751C12.0062 11.8421 11.4121 11.248 10.6791 11.248C9.94621 11.248 9.35205 11.8421 9.35205 12.5751C9.35205 13.308 9.94621 13.9022 10.6791 13.9022Z" fill="#C88F80" stroke="#B99399" stroke-width="2.4" stroke-linecap="round" stroke-linejoin="round"/>
<path d="M22.0541 13.9022C22.7871 13.9022 23.3812 13.308 23.3812 12.5751C23.3812 11.8421 22.7871 11.248 22.0541 11.248C21.3212 11.248 20.7271 11.8421 20.7271 12.5751C20.7271 13.308 21.3212 13.9022 22.0541 13.9022Z" fill="#C88F80" stroke="#B99399" stroke-width="2.4" stroke-linecap="round" stroke-linejoin="round"/>
<path d="M9.7312 20.1584C11.627 23.0022 14.4708 23.9501 16.3666 23.9501C18.2625 23.9501 21.1062 23.0022 23.002 20.1584" stroke="#B99399" stroke-width="2.4" stroke-linecap="round" stroke-linejoin="round"/>
</svg>
