<svg width="16" height="16" viewBox="0 0 16 16" fill="none" xmlns="http://www.w3.org/2000/svg">
<circle cx="8" cy="8" r="8" fill="#8A1216"/>
<path d="M8.00008 12.2C6.40008 12.2 5.60008 11.0333 5.60008 8.7C5.60008 6.36667 6.40008 5.2 8.00008 5.2C9.60008 5.2 10.4001 6.36667 10.4001 8.7C10.4001 11.0333 9.60008 12.2 8.00008 12.2ZM8.00008 11.8C8.36008 11.8 8.64008 11.69 8.84008 11.47C9.04674 11.25 9.19008 10.9167 9.27008 10.47C9.35674 10.0167 9.40008 9.42667 9.40008 8.7C9.40008 7.97333 9.35674 7.38667 9.27008 6.94C9.19008 6.48667 9.04674 6.15 8.84008 5.93C8.64008 5.71 8.36008 5.6 8.00008 5.6C7.64008 5.6 7.35674 5.71 7.15008 5.93C6.95008 6.15 6.80674 6.48667 6.72008 6.94C6.64008 7.38667 6.60008 7.97333 6.60008 8.7C6.60008 9.42667 6.64008 10.0167 6.72008 10.47C6.80674 10.9167 6.95008 11.25 7.15008 11.47C7.35674 11.69 7.64008 11.8 8.00008 11.8Z" fill="white"/>
</svg>
